<svg width="190" height="70" viewBox="0 0 190 70" fill="none" xmlns="http://www.w3.org/2000/svg">
<path d="M73.2208 48.7014L61.8085 37.411C59.4236 35.0517 59.6268 35.1351 56.249 35.1351H34.8468C31.467 35.1351 31.6702 35.0536 29.2873 37.411L17.875 48.7014C20.4624 53.8654 24.4733 58.2003 29.4445 61.2056L42.5899 48.2007C43.7861 47.0172 44.3152 46.5583 44.9651 46.361C45.1501 46.2963 45.3441 46.2605 45.5402 46.2548C45.7364 46.26 45.9305 46.2959 46.1153 46.361C46.7652 46.5507 47.2943 47.0172 48.4906 48.2007L61.6359 61.2056C66.6131 58.2028 70.6295 53.8677 73.2208 48.7014Z" fill="white"/>
<path d="M30.9409 34.0259C31.8036 33.1061 31.6828 32.319 32.5264 30.1607C33.5422 27.5597 35.3299 25.3238 37.6545 23.747C39.979 22.1702 42.7315 21.3263 45.55 21.3263C48.3684 21.3263 51.1209 22.1702 53.4454 23.747C55.77 25.3238 57.5577 27.5597 58.5736 30.1607C59.4171 32.3266 59.2963 33.1061 60.1571 34.0259C61.0178 34.9458 61.8824 35.1335 64.62 35.1335H76.4349C76.467 31.1007 75.6919 27.1016 74.1541 23.3666C72.6164 19.6316 70.3466 16.2347 67.4755 13.3718C64.6043 10.5089 61.1887 8.23659 57.4257 6.68593C53.6626 5.13526 49.6264 4.33691 45.55 4.33691C41.4735 4.33691 37.4373 5.13526 33.6743 6.68593C29.9112 8.23659 26.4956 10.5089 23.6245 13.3718C20.7533 16.2347 18.4835 19.6316 16.9458 23.3666C15.4081 27.1016 14.6329 31.1007 14.665 35.1335H26.4742C29.2213 35.1335 30.1032 34.9211 30.9409 34.0259ZM162.563 18.3715C153.116 18.3715 145.43 25.8839 145.43 35.1184C145.43 44.3528 153.116 51.8652 162.563 51.8652C172.01 51.8652 179.698 44.3528 179.698 35.1184C179.698 25.8839 172.012 18.3715 162.563 18.3715ZM162.601 43.892C160.847 43.8923 159.132 43.3781 157.674 42.4141C156.215 41.4502 155.078 40.08 154.407 38.4768C153.735 36.8735 153.559 35.1093 153.901 33.4072C154.244 31.7051 155.088 30.1416 156.329 28.9145C157.569 27.6874 159.149 26.8517 160.87 26.5132C162.59 26.1748 164.374 26.3487 165.994 27.013C167.615 27.6773 169 28.8021 169.974 30.2452C170.948 31.6883 171.468 33.3848 171.468 35.1203C171.465 37.4457 170.53 39.6751 168.868 41.3195C167.205 42.9638 164.952 43.889 162.601 43.892ZM132.53 21.8802V50.934H140.549V19.1927H135.247C134.856 19.1714 134.464 19.2098 134.085 19.3065C133.746 19.4099 133.438 19.5937 133.187 19.842C132.937 20.0903 132.751 20.3954 132.647 20.7309C132.549 21.1057 132.509 21.4934 132.53 21.8802ZM93.3549 19.1927V50.934H98.6787C99.0695 50.9553 99.4614 50.917 99.8404 50.8202C100.18 50.7174 100.489 50.5338 100.74 50.2854C100.991 50.0371 101.176 49.7317 101.28 49.3959C101.377 49.0214 101.416 48.6345 101.395 48.2484V31.4352L117.276 49.3503C117.771 49.9079 118.183 50.3404 118.827 50.6305C119.471 50.9207 120.071 50.9397 120.823 50.9397H126.672V19.1927H121.348C120.957 19.1714 120.565 19.2098 120.186 19.3065C119.847 19.409 119.538 19.5925 119.287 19.8409C119.037 20.0893 118.852 20.395 118.748 20.7309C118.65 21.1057 118.61 21.4934 118.631 21.8802V38.6972L102.752 20.7783C102.256 20.2188 101.844 19.7864 101.2 19.4981C100.555 19.2098 99.9554 19.187 99.2039 19.187L93.3549 19.1927Z" fill="white"/>
</svg>
