<svg width="354" height="48" viewBox="0 0 354 48" fill="none" xmlns="http://www.w3.org/2000/svg">
<g clip-path="url(#clip0_1353_3009)">
<path d="M0.164062 11.9151L128.732 11.9222L128.739 19.5999L0.164062 19.5858V11.9151ZM0.167782 33.3714L0.173119 25.8546L128.737 25.8536L128.738 33.3719L0.167782 33.3714ZM0.17037 47.3075V39.6352L128.737 39.6377L128.737 47.1553L0.17037 47.3075ZM159.922 11.5809C156.2 11.579 152.474 12.6823 149.172 14.8848C140.634 20.5819 138.399 31.9479 144.326 40.1561C150.213 48.3093 161.945 50.4596 170.449 44.9333L170.464 47.1506L179.52 47.1553L179.515 11.9136H170.459L170.464 14.5862C167.441 12.5186 163.56 11.5826 159.922 11.5809ZM160.104 19.6473C165.857 19.6473 170.525 24.119 170.525 29.6276C170.525 35.1363 165.857 39.6079 160.104 39.6079C154.351 39.6079 149.678 35.1361 149.678 29.6275C149.678 24.1188 154.351 19.6473 160.104 19.6473ZM212.016 0.00986768L212.021 14.7378L212.006 14.7527C205.464 10.536 197.388 10.5366 190.846 14.7527C182.183 20.3353 179.893 31.5853 185.731 39.8673C191.562 48.1378 203.377 50.4224 212.036 44.8698L212.021 47.1556H221.077L221.082 0.0100243H212.016L212.016 0.00986768ZM201.57 19.6865C207.318 19.6865 211.981 24.1445 211.981 29.6422C211.981 35.1402 207.318 39.6029 201.57 39.6029C195.822 39.6029 191.154 35.1402 191.154 29.6422C191.154 24.1443 195.822 19.6865 201.57 19.6865ZM225.287 0.00986768V8.93777H234.5V0.00986768H225.287ZM225.287 11.9137L225.277 47.1601H234.5V11.9139L225.287 11.9137ZM267.37 0C267.37 0 267.359 14.547 267.37 14.6057C260.915 10.5791 253.049 10.6099 246.609 14.6596C237.882 20.1473 235.456 31.39 241.191 39.74C246.927 48.0899 258.658 50.4013 267.385 44.9135V47.1504L276.381 47.1551L276.376 0H267.37ZM257.07 19.6617C262.785 19.6617 267.425 24.1293 267.425 29.6373C267.425 35.1454 262.785 39.6176 257.07 39.6176C251.356 39.6176 246.72 35.1452 246.72 29.6372C246.72 24.1291 251.356 19.6617 257.07 19.6617ZM298.299 11.5809C294.693 11.5856 291.082 12.6231 287.838 14.6891C279.163 20.2134 276.802 31.4491 282.561 39.7694C288.321 48.0896 300.035 50.3598 308.71 44.8354L308.735 47.1554H317.791V11.9184L308.745 11.9039V14.6792C305.507 12.6053 301.905 11.5762 298.299 11.5809ZM298.385 19.6718C304.051 19.6718 308.649 24.1248 308.649 29.6129C308.649 35.1011 304.051 39.554 298.385 39.554C292.719 39.554 288.121 35.1011 288.121 29.6128C288.121 24.1248 292.718 19.6718 298.385 19.6718ZM330.587 35.783C330.507 37.8975 332.164 41.3825 338.188 41.3042C344.212 41.2259 344.172 37.4276 344.172 37.4276C344.282 33.5677 334.089 33.7041 334.145 33.4336C320.561 31.5149 322.036 22.8806 322.036 22.8806C321.883 20.5704 323.861 11.5485 336.996 11.662C351.512 11.7873 352.671 22.6446 352.399 23.096H343.282C343.282 23.096 343.722 18.3165 337.4 18.3971C332.155 18.4642 331.578 20.2571 331.578 20.2571C329.235 25.1147 339.962 24.8702 342.979 25.9252C342.979 25.9252 353.633 27.5993 353.835 35.4699C354.037 43.3406 347.972 47.922 337.582 47.922C330.436 47.6045 321.798 45.3586 321.086 35.7832H330.587V35.783ZM350.135 4.31719C348.126 4.31719 346.497 5.9051 346.497 7.85608C346.497 9.80722 348.126 11.39 350.135 11.39C352.144 11.39 353.774 9.80722 353.774 7.85608C353.774 5.90495 352.144 4.31719 350.135 4.31719ZM350.125 4.96814C351.77 4.96814 353.102 6.29433 353.102 7.92453C353.102 9.55473 351.769 10.8761 350.125 10.8761C348.481 10.8761 347.149 9.55473 347.149 7.92453C347.149 6.29433 348.481 4.96814 350.125 4.96814ZM348.832 5.95679V9.87254H349.499L349.489 8.31595H350.125L350.944 9.87739L351.591 9.87254C351.591 9.87254 351.566 9.70619 350.782 8.20834C350.702 8.03214 351.621 8.13974 351.611 7.12165C351.601 6.10355 350.57 5.95663 350.57 5.95663L348.832 5.95679ZM349.494 6.43169L350.282 6.43639C350.282 6.43639 350.944 6.41697 350.944 7.06291C350.944 7.70885 350.823 7.84606 349.493 7.84136L349.494 6.43169Z" fill="white"/>
</g>
<defs>
<clipPath id="clip0_1353_3009">
<rect width="354" height="48" fill="white"/>
</clipPath>
</defs>
</svg>
